<svg xmlns="http://www.w3.org/2000/svg" xmlns:xlink="http://www.w3.org/1999/xlink" aria-hidden="true" width="64" height="64" viewBox="0 0 64 64"><path d="M63.904 32c0 17.622-14.28 31.9-31.902 31.9C14.377 63.9.098 49.622.098 32 .098 14.381 14.377.098 32.002.098 49.624.098 63.904 14.381 63.904 32" fill="#fbbf67"/><g fill="#fff" transform="translate(-.096 -.1)"><ellipse ry="9.714" rx="6.484" cy="24.771" cx="21.13"/><ellipse ry="9.714" rx="6.483" cy="24.771" cx="43.07"/></g><g fill="#25333a"><path d="M25.231 24.671c0 2.812-1.879 5.088-4.195 5.088-2.32 0-4.197-2.277-4.197-5.088 0-2.804 1.877-5.086 4.197-5.086 2.316 0 4.195 2.282 4.195 5.086"/><path d="M47.174 24.671c0 2.812-1.879 5.088-4.197 5.088-2.319 0-4.194-2.277-4.194-5.088 0-2.804 1.875-5.086 4.194-5.086 2.318 0 4.197 2.282 4.197 5.086"/></g><path d="M44.384 43.13h-1.857c-.094 0-.16.035-.247.049-.094.014-.184.018-.278.057-.16.059-.29.153-.403.261-.023.021-.055.025-.078.051-4.475 4.361-10.337 5.356-15.921 2.484-2.998-1.542-2.75-2.901-5.96-2.901-1.312 0-1.802 1.522-1.01 2.434 7.241 8.354 19.521 8.354 26.763 0 .79-.912.304-2.435-1.01-2.435" fill="#633d19"/><rect x="0" y="0" width="64" height="64" fill="rgba(0, 0, 0, 0)" /></svg>
